<svg width="98" height="44" viewBox="0 0 98 44" fill="none" xmlns="http://www.w3.org/2000/svg">
<path d="M33.9496 2.75974V7.08513L8.41833 26.6602V22.3348L33.9496 2.75974Z" fill="url(#paint0_linear_12_342)"/>
<path d="M14.5345 -0.000569344V3.98053L7.05556 8.30509L3.55363 10.3301L0 8.40429L3.50193 6.37903L14.5345 -0.000569344Z" fill="url(#paint1_linear_12_342)"/>
<path d="M14.5345 12.3583V16.2812L3.55363 10.33L0 8.40422L3.50193 6.37896L7.05556 8.30503L14.5345 12.3583Z" fill="url(#paint2_linear_12_342)"/>
<path d="M25.6794 38.316V38.3163L23.9057 43.7324L22.132 38.3163L16.7822 21.9793H20.3294L23.9057 32.9001L25.6794 38.316Z" fill="url(#paint3_linear_12_342)"/>
<path d="M31.0291 21.9792L25.6794 38.3159V38.3162L23.9057 43.7324L22.132 38.3162L23.9057 32.9001L27.4817 21.9792H31.0291Z" fill="#6366F1"/>
<path d="M40.1746 20.1582L36.4992 8.92309H39.1956L42.3896 18.8742H41.0414L44.3798 8.92309H46.7873L49.9973 18.8742H48.6973L51.9715 8.92309H54.4593L50.7838 20.1582H47.9911L45.1502 11.4269H45.8885L42.9674 20.1582H40.1746ZM59.377 20.2866C58.3926 20.2866 57.5259 20.094 56.7769 19.7088C56.0386 19.3236 55.4661 18.7993 55.0595 18.1359C54.6529 17.4618 54.4496 16.6967 54.4496 15.8407C54.4496 14.974 54.6476 14.2089 55.0435 13.5455C55.4501 12.8714 56.0012 12.3471 56.6967 11.9726C57.3922 11.5874 58.1786 11.3948 59.056 11.3948C59.9013 11.3948 60.661 11.5767 61.3352 11.9405C62.02 12.2936 62.5603 12.8072 62.9562 13.4813C63.3521 14.1447 63.5501 14.9419 63.5501 15.8728C63.5501 15.9691 63.5447 16.0815 63.534 16.2099C63.5233 16.3276 63.5126 16.4399 63.5019 16.5469H56.488V15.0864H62.1858L61.2228 15.5197C61.2228 15.0703 61.1319 14.6797 60.9499 14.348C60.768 14.0163 60.5166 13.7595 60.1956 13.5776C59.8746 13.385 59.5001 13.2887 59.0721 13.2887C58.6441 13.2887 58.2642 13.385 57.9325 13.5776C57.6115 13.7595 57.3601 14.0217 57.1782 14.3641C56.9963 14.6958 56.9053 15.0917 56.9053 15.5518V15.937C56.9053 16.4078 57.007 16.8251 57.2103 17.1889C57.4243 17.542 57.7185 17.8149 58.093 18.0075C58.4782 18.1894 58.9276 18.2803 59.4412 18.2803C59.9013 18.2803 60.3026 18.2108 60.645 18.0717C60.9981 17.9326 61.3191 17.7239 61.608 17.4457L62.9402 18.8902C62.5443 19.3396 62.0467 19.6874 61.4475 19.9335C60.8483 20.1689 60.1581 20.2866 59.377 20.2866ZM70.321 20.2866C69.5613 20.2866 68.9086 20.1261 68.3629 19.8051C67.8172 19.4841 67.3999 18.9972 67.111 18.3445C66.8221 17.6811 66.6776 16.8465 66.6776 15.8407C66.6776 14.8242 66.8274 13.9896 67.127 13.3369C67.4373 12.6842 67.8653 12.1973 68.411 11.8763C68.9567 11.5553 69.5934 11.3948 70.321 11.3948C71.1342 11.3948 71.8618 11.5767 72.5038 11.9405C73.1565 12.3043 73.6701 12.8179 74.0446 13.4813C74.4298 14.1447 74.6224 14.9312 74.6224 15.8407C74.6224 16.7395 74.4298 17.5206 74.0446 18.184C73.6701 18.8474 73.1565 19.3664 72.5038 19.7409C71.8618 20.1047 71.1342 20.2866 70.321 20.2866ZM65.217 20.1582V8.24898H67.7209V13.2727L67.5604 15.8247L67.6085 18.3927V20.1582H65.217ZM69.8876 18.2322C70.3049 18.2322 70.6741 18.1359 70.9951 17.9433C71.3268 17.7507 71.5889 17.4778 71.7816 17.1247C71.9849 16.7609 72.0865 16.3329 72.0865 15.8407C72.0865 15.3378 71.9849 14.9098 71.7816 14.5567C71.5889 14.2036 71.3268 13.9307 70.9951 13.7381C70.6741 13.5455 70.3049 13.4492 69.8876 13.4492C69.4703 13.4492 69.0958 13.5455 68.7641 13.7381C68.4324 13.9307 68.1703 14.2036 67.9777 14.5567C67.7851 14.9098 67.6888 15.3378 67.6888 15.8407C67.6888 16.3329 67.7851 16.7609 67.9777 17.1247C68.1703 17.4778 68.4324 17.7507 68.7641 17.9433C69.0958 18.1359 69.4703 18.2322 69.8876 18.2322ZM79.0518 20.3508C78.2707 20.3508 77.4949 20.2492 76.7245 20.0459C75.9541 19.8318 75.3014 19.5322 74.7664 19.147L75.7775 17.1568C76.2055 17.4671 76.7031 17.7132 77.2702 17.8951C77.8373 18.077 78.4098 18.168 78.9876 18.168C79.6403 18.168 80.1539 18.0396 80.5284 17.7828C80.9029 17.526 81.0901 17.1729 81.0901 16.7235C81.0901 16.2955 80.9243 15.9584 80.5926 15.7123C80.2609 15.4662 79.7259 15.3432 78.9876 15.3432H77.7999V13.6258L80.9296 10.0787L81.2185 11.0096H75.3281V8.92309H83.1927V10.6084L80.079 14.1554L78.7629 13.4011H79.5172C80.8975 13.4011 81.9408 13.7114 82.647 14.332C83.3532 14.9526 83.7063 15.7498 83.7063 16.7235C83.7063 17.3548 83.5405 17.9486 83.2088 18.505C82.8771 19.0507 82.3688 19.4948 81.684 19.8372C80.9992 20.1796 80.1218 20.3508 79.0518 20.3508Z" fill="black"/>
<path d="M36.5981 28.0596V23.1606H38.8236C39.3555 23.1606 39.8244 23.2633 40.2303 23.4686C40.6362 23.6692 40.9535 23.9515 41.1821 24.3154C41.4107 24.6793 41.525 25.1109 41.525 25.6101C41.525 26.1047 41.4107 26.5362 41.1821 26.9048C40.9535 27.2687 40.6362 27.5533 40.2303 27.7586C39.8244 27.9593 39.3555 28.0596 38.8236 28.0596H36.5981ZM37.7318 27.1288H38.7676C39.0942 27.1288 39.3765 27.0681 39.6144 26.9468C39.857 26.8208 40.0437 26.6435 40.1743 26.4149C40.3096 26.1863 40.3773 25.918 40.3773 25.6101C40.3773 25.2975 40.3096 25.0292 40.1743 24.8053C40.0437 24.5767 39.857 24.4017 39.6144 24.2804C39.3765 24.1544 39.0942 24.0914 38.7676 24.0914H37.7318V27.1288ZM44.1716 28.1156C43.7424 28.1156 43.3645 28.0316 43.0379 27.8636C42.7159 27.6957 42.4663 27.467 42.289 27.1778C42.1117 26.8838 42.0231 26.5502 42.0231 26.177C42.0231 25.7991 42.1094 25.4655 42.282 25.1762C42.4593 24.8823 42.6996 24.6537 43.0029 24.4904C43.3061 24.3224 43.6491 24.2384 44.0317 24.2384C44.4002 24.2384 44.7315 24.3177 45.0254 24.4764C45.324 24.6303 45.5597 24.8543 45.7323 25.1482C45.9049 25.4375 45.9912 25.7851 45.9912 26.191C45.9912 26.233 45.9889 26.282 45.9842 26.3379C45.9796 26.3893 45.9749 26.4383 45.9702 26.4849H42.9119V25.8481H45.3964L44.9764 26.037C44.9764 25.8411 44.9368 25.6708 44.8575 25.5261C44.7782 25.3815 44.6685 25.2695 44.5285 25.1902C44.3886 25.1062 44.2253 25.0642 44.0387 25.0642C43.852 25.0642 43.6864 25.1062 43.5418 25.1902C43.4018 25.2695 43.2922 25.3838 43.2128 25.5331C43.1335 25.6778 43.0939 25.8504 43.0939 26.051V26.219C43.0939 26.4243 43.1382 26.6062 43.2268 26.7649C43.3201 26.9188 43.4485 27.0378 43.6117 27.1218C43.7797 27.2011 43.9757 27.2408 44.1996 27.2408C44.4002 27.2408 44.5752 27.2104 44.7245 27.1498C44.8785 27.0891 45.0184 26.9981 45.1444 26.8768L45.7253 27.5067C45.5527 27.7026 45.3357 27.8543 45.0744 27.9616C44.8132 28.0642 44.5122 28.1156 44.1716 28.1156ZM47.6715 28.0596L46.0899 24.2944H47.2166L48.5323 27.5347H47.9724L49.3371 24.2944H50.3869L48.7983 28.0596H47.6715ZM52.5985 28.1156C52.1692 28.1156 51.7913 28.0316 51.4647 27.8636C51.1428 27.6957 50.8932 27.467 50.7159 27.1778C50.5386 26.8838 50.45 26.5502 50.45 26.177C50.45 25.7991 50.5363 25.4655 50.7089 25.1762C50.8862 24.8823 51.1265 24.6537 51.4297 24.4904C51.733 24.3224 52.0759 24.2384 52.4585 24.2384C52.8271 24.2384 53.1584 24.3177 53.4523 24.4764C53.7509 24.6303 53.9865 24.8543 54.1591 25.1482C54.3318 25.4375 54.4181 25.7851 54.4181 26.191C54.4181 26.233 54.4158 26.282 54.4111 26.3379C54.4064 26.3893 54.4018 26.4383 54.3971 26.4849H51.3388V25.8481H53.8232L53.4033 26.037C53.4033 25.8411 53.3637 25.6708 53.2843 25.5261C53.205 25.3815 53.0954 25.2695 52.9554 25.1902C52.8154 25.1062 52.6521 25.0642 52.4655 25.0642C52.2789 25.0642 52.1133 25.1062 51.9686 25.1902C51.8287 25.2695 51.719 25.3838 51.6397 25.5331C51.5604 25.6778 51.5207 25.8504 51.5207 26.051V26.219C51.5207 26.4243 51.565 26.6062 51.6537 26.7649C51.747 26.9188 51.8753 27.0378 52.0386 27.1218C52.2066 27.2011 52.4025 27.2408 52.6265 27.2408C52.8271 27.2408 53.0021 27.2104 53.1514 27.1498C53.3053 27.0891 53.4453 26.9981 53.5713 26.8768L54.1521 27.5067C53.9795 27.7026 53.7626 27.8543 53.5013 27.9616C53.24 28.0642 52.9391 28.1156 52.5985 28.1156ZM55.1449 28.0596V22.8667H56.2367V28.0596H55.1449ZM59.0416 28.1156C58.6403 28.1156 58.2834 28.0316 57.9708 27.8636C57.6629 27.6957 57.4179 27.467 57.236 27.1778C57.0587 26.8838 56.97 26.5502 56.97 26.177C56.97 25.7991 57.0587 25.4655 57.236 25.1762C57.4179 24.8823 57.6629 24.6537 57.9708 24.4904C58.2834 24.3224 58.6403 24.2384 59.0416 24.2384C59.4381 24.2384 59.7927 24.3224 60.1053 24.4904C60.4179 24.6537 60.6629 24.8799 60.8402 25.1692C61.0175 25.4585 61.1061 25.7944 61.1061 26.177C61.1061 26.5502 61.0175 26.8838 60.8402 27.1778C60.6629 27.467 60.4179 27.6957 60.1053 27.8636C59.7927 28.0316 59.4381 28.1156 59.0416 28.1156ZM59.0416 27.2198C59.2235 27.2198 59.3868 27.1778 59.5314 27.0938C59.6761 27.0098 59.7904 26.8908 59.8744 26.7369C59.9584 26.5782 60.0003 26.3916 60.0003 26.177C60.0003 25.9577 59.9584 25.7711 59.8744 25.6171C59.7904 25.4631 59.6761 25.3442 59.5314 25.2602C59.3868 25.1762 59.2235 25.1342 59.0416 25.1342C58.8596 25.1342 58.6963 25.1762 58.5517 25.2602C58.407 25.3442 58.2904 25.4631 58.2017 25.6171C58.1178 25.7711 58.0758 25.9577 58.0758 26.177C58.0758 26.3916 58.1178 26.5782 58.2017 26.7369C58.2904 26.8908 58.407 27.0098 58.5517 27.0938C58.6963 27.1778 58.8596 27.2198 59.0416 27.2198ZM64.0614 28.1156C63.7441 28.1156 63.4665 28.0456 63.2286 27.9056C62.9906 27.7656 62.804 27.5533 62.6687 27.2687C62.538 26.9795 62.4727 26.6156 62.4727 26.177C62.4727 25.7337 62.5357 25.3698 62.6617 25.0852C62.7876 24.8006 62.9696 24.5883 63.2076 24.4484C63.4455 24.3084 63.7301 24.2384 64.0614 24.2384C64.416 24.2384 64.7332 24.3201 65.0132 24.4834C65.2978 24.642 65.5217 24.8659 65.685 25.1552C65.853 25.4445 65.937 25.7851 65.937 26.177C65.937 26.5736 65.853 26.9165 65.685 27.2058C65.5217 27.495 65.2978 27.719 65.0132 27.8776C64.7332 28.0362 64.416 28.1156 64.0614 28.1156ZM61.8359 29.4173V24.2944H62.8786V25.0642L62.8576 26.184L62.9276 27.2967V29.4173H61.8359ZM63.8724 27.2198C64.0544 27.2198 64.2153 27.1778 64.3553 27.0938C64.4999 27.0098 64.6142 26.8908 64.6982 26.7369C64.7869 26.5782 64.8312 26.3916 64.8312 26.177C64.8312 25.9577 64.7869 25.7711 64.6982 25.6171C64.6142 25.4631 64.4999 25.3442 64.3553 25.2602C64.2153 25.1762 64.0544 25.1342 63.8724 25.1342C63.6904 25.1342 63.5272 25.1762 63.3825 25.2602C63.2379 25.3442 63.1236 25.4631 63.0396 25.6171C62.9556 25.7711 62.9136 25.9577 62.9136 26.177C62.9136 26.3916 62.9556 26.5782 63.0396 26.7369C63.1236 26.8908 63.2379 27.0098 63.3825 27.0938C63.5272 27.1778 63.6904 27.2198 63.8724 27.2198ZM68.5364 28.1156C68.1072 28.1156 67.7292 28.0316 67.4026 27.8636C67.0807 27.6957 66.8311 27.467 66.6538 27.1778C66.4765 26.8838 66.3879 26.5502 66.3879 26.177C66.3879 25.7991 66.4742 25.4655 66.6468 25.1762C66.8241 24.8823 67.0644 24.6537 67.3676 24.4904C67.6709 24.3224 68.0138 24.2384 68.3964 24.2384C68.765 24.2384 69.0963 24.3177 69.3902 24.4764C69.6888 24.6303 69.9244 24.8543 70.0971 25.1482C70.2697 25.4375 70.356 25.7851 70.356 26.191C70.356 26.233 70.3537 26.282 70.349 26.3379C70.3443 26.3893 70.3397 26.4383 70.335 26.4849H67.2767V25.8481H69.7611L69.3412 26.037C69.3412 25.8411 69.3016 25.6708 69.2222 25.5261C69.1429 25.3815 69.0333 25.2695 68.8933 25.1902C68.7533 25.1062 68.59 25.0642 68.4034 25.0642C68.2168 25.0642 68.0512 25.1062 67.9065 25.1902C67.7666 25.2695 67.6569 25.3838 67.5776 25.5331C67.4983 25.6778 67.4586 25.8504 67.4586 26.051V26.219C67.4586 26.4243 67.503 26.6062 67.5916 26.7649C67.6849 26.9188 67.8132 27.0378 67.9765 27.1218C68.1445 27.2011 68.3404 27.2408 68.5644 27.2408C68.765 27.2408 68.94 27.2104 69.0893 27.1498C69.2432 27.0891 69.3832 26.9981 69.5092 26.8768L70.0901 27.5067C69.9174 27.7026 69.7005 27.8543 69.4392 27.9616C69.1779 28.0642 68.877 28.1156 68.5364 28.1156ZM71.0828 28.0596V24.2944H72.1256V25.3582L71.9787 25.0502C72.0906 24.7843 72.2703 24.5837 72.5175 24.4484C72.7648 24.3084 73.0657 24.2384 73.4203 24.2384V25.2462C73.3737 25.2415 73.3317 25.2392 73.2944 25.2392C73.257 25.2345 73.2174 25.2322 73.1754 25.2322C72.8768 25.2322 72.6342 25.3185 72.4476 25.4911C72.2656 25.6591 72.1746 25.9227 72.1746 26.282V28.0596H71.0828ZM78.5003 28.1436C78.1224 28.1436 77.7701 28.0829 77.4435 27.9616C77.1216 27.8356 76.8417 27.6583 76.6037 27.4297C76.3658 27.2011 76.1791 26.9328 76.0438 26.6249C75.9132 26.317 75.8479 25.9787 75.8479 25.6101C75.8479 25.2415 75.9132 24.9033 76.0438 24.5953C76.1791 24.2874 76.3658 24.0191 76.6037 23.7905C76.8463 23.5619 77.1286 23.3869 77.4505 23.2656C77.7725 23.1397 78.1247 23.0767 78.5073 23.0767C78.9319 23.0767 79.3144 23.1513 79.655 23.3006C80.0003 23.4452 80.2896 23.6599 80.5228 23.9445L79.795 24.6163C79.627 24.425 79.4404 24.2827 79.2351 24.1894C79.0298 24.0914 78.8059 24.0425 78.5633 24.0425C78.3347 24.0425 78.1247 24.0798 77.9334 24.1544C77.7421 24.2291 77.5765 24.3364 77.4365 24.4764C77.2966 24.6163 77.1869 24.782 77.1076 24.9732C77.0329 25.1645 76.9956 25.3768 76.9956 25.6101C76.9956 25.8434 77.0329 26.0557 77.1076 26.247C77.1869 26.4383 77.2966 26.6039 77.4365 26.7439C77.5765 26.8838 77.7421 26.9911 77.9334 27.0658C78.1247 27.1404 78.3347 27.1778 78.5633 27.1778C78.8059 27.1778 79.0298 27.1311 79.2351 27.0378C79.4404 26.9398 79.627 26.7928 79.795 26.5969L80.5228 27.2687C80.2896 27.5533 80.0003 27.7703 79.655 27.9196C79.3144 28.0689 78.9295 28.1436 78.5003 28.1436ZM81.2115 28.0596V22.8667H82.3032V28.0596H81.2115ZM84.9051 28.1156C84.5925 28.1156 84.3126 28.0549 84.0653 27.9336C83.8227 27.8123 83.6338 27.628 83.4985 27.3807C83.3631 27.1288 83.2955 26.8092 83.2955 26.4219V24.2944H84.3873V26.261C84.3873 26.5736 84.4526 26.8045 84.5832 26.9538C84.7185 27.0984 84.9075 27.1708 85.1501 27.1708C85.3181 27.1708 85.4674 27.1358 85.598 27.0658C85.7286 26.9911 85.8313 26.8792 85.9059 26.7299C85.9806 26.5759 86.0179 26.3846 86.0179 26.156V24.2944H87.1097V28.0596H86.0739V27.0238L86.2628 27.3247C86.1369 27.586 85.9502 27.7843 85.703 27.9196C85.4604 28.0502 85.1944 28.1156 84.9051 28.1156ZM90.3466 28.1156C90.0154 28.1156 89.7307 28.0456 89.4928 27.9056C89.2549 27.7656 89.0729 27.5533 88.9469 27.2687C88.8209 26.9795 88.758 26.6156 88.758 26.177C88.758 25.7337 88.8233 25.3698 88.9539 25.0852C89.0892 24.8006 89.2758 24.5883 89.5138 24.4484C89.7517 24.3084 90.0293 24.2384 90.3466 24.2384C90.7012 24.2384 91.0185 24.3177 91.2984 24.4764C91.583 24.635 91.807 24.8589 91.9703 25.1482C92.1382 25.4375 92.2222 25.7804 92.2222 26.177C92.2222 26.5689 92.1382 26.9095 91.9703 27.1988C91.807 27.488 91.583 27.7143 91.2984 27.8776C91.0185 28.0362 90.7012 28.1156 90.3466 28.1156ZM88.1211 28.0596V22.8667H89.2129V25.0572L89.1429 26.17L89.1639 27.2897V28.0596H88.1211ZM90.1577 27.2198C90.3396 27.2198 90.5006 27.1778 90.6405 27.0938C90.7852 27.0098 90.8995 26.8908 90.9835 26.7369C91.0721 26.5782 91.1164 26.3916 91.1164 26.177C91.1164 25.9577 91.0721 25.7711 90.9835 25.6171C90.8995 25.4631 90.7852 25.3442 90.6405 25.2602C90.5006 25.1762 90.3396 25.1342 90.1577 25.1342C89.9757 25.1342 89.8124 25.1762 89.6678 25.2602C89.5231 25.3442 89.4088 25.4631 89.3248 25.6171C89.2409 25.7711 89.1989 25.9577 89.1989 26.177C89.1989 26.3916 89.2409 26.5782 89.3248 26.7369C89.4088 26.8908 89.5231 27.0098 89.6678 27.0938C89.8124 27.1778 89.9757 27.2198 90.1577 27.2198ZM94.2198 28.1156C93.8978 28.1156 93.5876 28.0782 93.289 28.0036C92.995 27.9243 92.7618 27.8263 92.5891 27.7096L92.953 26.9258C93.1257 27.0331 93.3286 27.1218 93.5619 27.1918C93.7999 27.2571 94.0331 27.2897 94.2618 27.2897C94.5137 27.2897 94.691 27.2594 94.7936 27.1988C94.901 27.1381 94.9546 27.0541 94.9546 26.9468C94.9546 26.8582 94.9126 26.7928 94.8286 26.7509C94.7493 26.7042 94.642 26.6692 94.5067 26.6459C94.3714 26.6226 94.2221 26.5992 94.0588 26.5759C93.9002 26.5526 93.7392 26.5222 93.5759 26.4849C93.4126 26.4429 93.2633 26.3823 93.128 26.303C92.9927 26.2236 92.8831 26.1163 92.7991 25.981C92.7198 25.8457 92.6801 25.6708 92.6801 25.4561C92.6801 25.2182 92.7478 25.0082 92.8831 24.8263C93.023 24.6443 93.2237 24.502 93.4849 24.3994C93.7462 24.2921 94.0588 24.2384 94.4227 24.2384C94.6793 24.2384 94.9406 24.2664 95.2066 24.3224C95.4725 24.3784 95.6941 24.46 95.8714 24.5673L95.5075 25.3442C95.3255 25.2369 95.1412 25.1645 94.9546 25.1272C94.7726 25.0852 94.5954 25.0642 94.4227 25.0642C94.1801 25.0642 94.0028 25.0969 93.8908 25.1622C93.7789 25.2275 93.7229 25.3115 93.7229 25.4142C93.7229 25.5075 93.7625 25.5774 93.8419 25.6241C93.9258 25.6708 94.0355 25.7081 94.1708 25.7361C94.3061 25.7641 94.4531 25.7897 94.6117 25.8131C94.775 25.8317 94.9383 25.8621 95.1016 25.904C95.2649 25.946 95.4118 26.0067 95.5425 26.086C95.6778 26.1607 95.7874 26.2656 95.8714 26.4009C95.9554 26.5316 95.9974 26.7042 95.9974 26.9188C95.9974 27.1521 95.9274 27.3597 95.7874 27.5417C95.6475 27.719 95.4445 27.8589 95.1786 27.9616C94.9173 28.0642 94.5977 28.1156 94.2198 28.1156Z" fill="black"/>
<defs>
<linearGradient id="paint0_linear_12_342" x1="36.186" y1="-61.3033" x2="42.0625" y2="-61.3033" gradientUnits="userSpaceOnUse">
<stop stop-color="#6366F1"/>
<stop offset="1" stop-opacity="0"/>
</linearGradient>
<linearGradient id="paint1_linear_12_342" x1="16.7709" y1="-64.0636" x2="22.6475" y2="-64.0636" gradientUnits="userSpaceOnUse">
<stop stop-color="#6366F1"/>
<stop offset="1" stop-opacity="0"/>
</linearGradient>
<linearGradient id="paint2_linear_12_342" x1="16.7709" y1="-51.7048" x2="22.6475" y2="-51.7048" gradientUnits="userSpaceOnUse">
<stop stop-color="#6366F1"/>
<stop offset="1" stop-opacity="0"/>
</linearGradient>
<linearGradient id="paint3_linear_12_342" x1="27.9158" y1="-25.7471" x2="33.7924" y2="-25.7471" gradientUnits="userSpaceOnUse">
<stop stop-color="#6366F1"/>
<stop offset="1" stop-opacity="0"/>
</linearGradient>
</defs>
</svg>
